<?xml version="1.0" standalone="no"?>
<!DOCTYPE svg PUBLIC "-//W3C//DTD SVG 20010904//EN"
 "http://www.w3.org/TR/2001/REC-SVG-20010904/DTD/svg10.dtd">
<svg version="1.0" xmlns="http://www.w3.org/2000/svg"
 width="200px" height="17px" viewBox="0 0 376 17"
 preserveAspectRatio="xMidYMid meet">
<g transform="translate(0.000000,17.000000) scale(0.100000,-0.100000)"
fill="#3C1218" stroke="none">
<path d="M27 128 c-22 -18 -28 -30 -25 -53 l3 -29 355 3 c195 2 418 6 495 10
77 3 219 3 315 -1 275 -10 2438 -12 2500 -2 45 7 56 13 58 30 2 13 -4 24 -13
28 -9 3 -236 13 -503 22 -412 14 -529 15 -762 4 -270 -12 -726 -11 -1925 5
l-470 7 -28 -24z"/>
</g>
</svg>
