<?xml version="1.0" standalone="no"?>
<!DOCTYPE svg PUBLIC "-//W3C//DTD SVG 20010904//EN"
 "http://www.w3.org/TR/2001/REC-SVG-20010904/DTD/svg10.dtd">
<svg version="1.0" xmlns="http://www.w3.org/2000/svg" width="99px" height="99px" viewBox="0 0 99 105" preserveAspectRatio="xMidYMid meet">
    <defs>
        <linearGradient id="MyGradient">
            <stop  offset="0%" stop-color="#f04c5f"/>
            <stop  offset="100%" stop-color="#f6916a"/>
        </linearGradient>
    </defs>
    <g transform="translate(0.000000,105.000000) scale(0.100000,-0.100000)" fill="url(#MyGradient)" stroke="none">
    <path d="M782 1000 c-148 -27 -308 -72 -447 -125 l-80 -31 -3 -302 -2 -302
    -54 0 c-68 0 -118 -21 -150 -63 -37 -48 -35 -97 4 -131 53 -44 131 -47 197 -6
    67 40 67 44 73 359 l5 286 65 18 c140 39 250 58 368 64 l122 6 0 -221 0 -222
    -47 0 c-95 -1 -173 -61 -173 -132 0 -54 58 -98 128 -98 69 0 130 36 161 97 8
    15 11 145 11 422 l0 401 -37 -1 c-21 0 -84 -9 -141 -19z m98 -110 c0 -36 -2
    -39 -32 -44 -227 -37 -437 -83 -513 -112 -11 -5 -15 1 -15 25 0 28 5 34 45 51
    115 49 380 117 468 119 l47 1 0 -40z"/>
    </g>
</svg>
